<?xml version="1.0" encoding="UTF-8"?>
<svg id="Capa_2" data-name="Capa 2" xmlns="http://www.w3.org/2000/svg" viewBox="0 0 249.68 136.72">
  <defs>
    <style>
      .cls-1 {
        fill: #b73283;
      }
    </style>
  </defs>
  <g id="Capa_1-2" data-name="Capa 1">
    <path class="cls-1" d="M140,111.77c.44.51.88,1.03,1.33,1.53,3.89,4.33,4.23,11.2.77,15.88-5.04,6.82-14.73,9.44-22.54,6.09-3.49-1.5-5.53-4.41-5.28-7.55.11-1.4.67-2.55,1.92-3.29.22-.13.48-.24.7-.01.23.23.1.44-.07.67-2.06,2.82-1.68,5.53,1.06,7.74,1.01.82,2.12,1.42,3.35,1.84,6.39,2.17,14.07.22,18.53-4.84,4.48-5.1,4.44-13.04-1.54-18.16-1.41-1.21-3.06-1.82-4.7-2.54-.62-.28-1.06.14-1.55.37-11.96,5.49-24,10.78-36.76,14.19-7.88,2.11-15.86,3.42-24.04,3.15-5.41-.18-10.73-.83-15.57-3.59-5.72-3.25-7.26-9-3.85-14.62,1.91-3.16,4.68-5.41,7.8-7.25,5.52-3.26,11.57-4.81,17.89-5.38,12.18-1.1,23.99.97,35.66,4.26,6.59,1.86,13.03,4.13,19.46,6.43.86.31,1.58.31,2.44-.09,11.76-5.49,23.44-11.17,35.52-15.96.59-.23,1.06-.42.49-1.15-3.01-3.86-2.84-8.24-2.05-12.72.39-2.22,1.15-4.34,1.67-6.59-.71.83-1.4,1.69-2.15,2.5-2.82,3.04-5.57,6.15-9.14,8.36-1.69,1.04-3.48,1.92-5.36.6-1.87-1.31-1.99-3.27-1.5-5.3.24-.99.57-1.95.91-3.09-2.16,2.23-4.15,4.43-6.55,6.19-1.32.96-2.65,1.88-4.21,2.41-3.19,1.09-5.95-.58-6.54-3.92-.27-1.5-.06-2.98.1-4.46.03-.28.21-.56-.09-1-1.31,1.49-2.78,2.77-4.27,4.02-2.2,1.85-4.52,3.51-7.15,4.7-.94.42-1.91.74-2.93.9-4.4.69-7.64-2.02-7.69-6.49-.04-3.58,1.21-6.77,3-9.79.94-1.59.93-1.65-.87-1.96-1.26-.22-2.63-.91-3.76-.4-1.16.53-.94,2.16-1.35,3.28-1.64,4.42-4.39,8.11-7.68,11.38-3.63,3.6-7.78,6.53-12.44,8.69-4.2,1.95-8.58,3.12-13.25,2.96-.82-.03-1.62-.11-2.41-.31-3.67-.92-5.46-3.72-4.67-7.43.82-3.85,3.14-6.78,6.03-9.29,6.69-5.82,14.68-8.72,23.26-10.29,2.06-.38,4.13-.69,6.22-.77.45-.02.86-.08.98-.61.63-2.79,1.01-5.56-.71-8.16-1.43-2.16-3.15-2.85-5.63-2.21-1.58.41-3.17.72-4.81.59-.55-.04-1.1-.13-1.63-.28-.65-.18-1.2-.56-1.22-1.31-.02-.78.47-1.27,1.17-1.51,1.31-.45,2.68-.52,4.04-.49.51.01,1.07.01,1.51.22,2.78,1.31,5-.1,7.26-1.4,6.63-3.8,11.36-9.35,14.77-16.1,1.66-3.29,2.55-6.79,2.41-10.5-.11-3.03-1.61-5.42-3.63-7.56-.57-.6-.99-.23-1.42.13-3.55,2.95-6.97,6.03-10.14,9.4-8.26,8.78-15,18.71-21.88,28.54-6.08,8.67-12.17,17.35-19.61,24.95-6.81,6.96-14.39,12.9-23.28,16.95-7,3.19-14.34,5.15-22.12,5.43-4.71.16-9.29-.22-13.76-1.69-1.47-.48-2.84-1.17-4.13-2.02-5.12-3.38-5.75-9.12-1.5-13.58,2.52-2.64,5.68-4.21,9.06-5.37,7.12-2.44,14.35-2.99,21.66-.9,1.82.52,3.49,1.38,5.01,2.51.39.29,1.01.63.52,1.2-.46.54-.82-.1-1.16-.35-2.53-1.93-5.49-2.79-8.57-3.11-6.33-.66-12.54-.14-18.48,2.32-2.71,1.12-5.21,2.59-7.1,4.9-3.48,4.26-2.66,8.99,2.04,11.84,3.12,1.89,6.57,2.61,10.15,2.78,10.94.54,20.65-2.99,29.65-8.93,9.17-6.05,16.58-13.94,23.44-22.39,6.43-7.93,12.24-16.33,18.46-24.42,5.02-6.54,10.18-12.97,16.14-18.7,4.38-4.2,9.09-8.02,14.34-11.43-.87-.69-1.83-1.02-2.75-1.37-6.59-2.55-13.44-3.82-20.48-4.21-12.14-.68-23.83,1.4-35.12,5.74-8.47,3.26-16.11,7.91-22.32,14.61-4.91,5.3-8.53,11.36-9.39,18.69-.59,5,.08,9.74,3.99,13.47,2.98,2.85,6.68,3.92,10.66,4.03,9.02.24,16.8-3.12,23.65-8.71,6.84-5.58,11.9-12.44,14.2-21.12.54-2.05.74-4.11.51-6.22-.06-.51-.24-1.15.48-1.23.68-.07.74.63.8,1.11.34,2.59-.08,5.12-.79,7.59-1.66,5.77-4.68,10.79-8.61,15.27-5.38,6.13-11.85,10.67-19.72,13.05-5.41,1.64-10.88,2.14-16.4.49-6.25-1.87-10.17-6.79-10.62-13.28-.44-6.34,1.67-11.94,4.99-17.15,4.41-6.92,10.48-12.08,17.44-16.29,9.28-5.62,19.42-8.74,30.07-10.37,4.57-.7,9.16-1.12,13.78-.99,9.09.27,17.93,1.68,26.18,5.77.71.35,1.13-.07,1.62-.37,5.11-3.15,10.45-5.81,16.29-7.35,4.44-1.18,8.9-2.1,13.52-1.14,1.22.25,2.4.64,3.43,1.37,1.67,1.19,1.86,3.39.39,4.47-.41.3-.98.68-1.38.24-.55-.59.28-.72.55-1.01.93-.98.72-2.31-.61-3.12-1.82-1.11-3.9-1.23-5.95-1.27-3.5-.06-6.86.8-10.15,1.9-5.06,1.69-9.71,4.2-14.06,7.28-.54.38-.97.66-.16,1.29,7.89,6.11,8.19,14.14,4.27,21.97-2.72,5.44-7.06,9.37-12.3,12.34-2.75,1.56-5.65,2.8-8.7,3.63.09.39.39.4.61.5,4.25,2,6.44,5.3,6.42,10.03,0,1.95,0,1.95,1.91,2.27,1.43.24,2.94.87,4.27.61,1.33-.26,1.84-2,2.84-2.98,3.2-3.15,6.71-5.82,10.98-7.36,1.91-.69,3.86-1.12,5.9-.74,2.09.38,2.94,1.69,2.52,3.79-.33,1.64-1.3,2.89-2.5,3.93-3.87,3.34-8.34,5.3-13.49,5.49-1.03.04-1.64.39-2.15,1.24-1.94,3.18-3.81,6.38-4.47,10.13-.15.86-.12,1.69.11,2.53.34,1.23,1.16,1.83,2.41,1.92,1.46.1,2.78-.38,4.06-1,5.06-2.46,9.08-6.25,12.63-10.48,1.7-2.03,2.69-4.63,4.42-6.72,3.72-4.48,8.09-8.08,13.61-10.12,1.82-.67,3.71-1.07,5.65-.77,2.5.39,3.51,1.75,3.3,4.28-.02.29-.07.58-.15,1.24,1.11-1.42,2.03-2.55,2.89-3.73.93-1.26,2.19-1.71,3.69-1.63,1.47.08,1.94.89,1.1,2.11-1.74,2.53-3.58,5-5.36,7.51-3.38,4.77-6.8,9.52-9.68,14.63-.48.86-.96,1.72-1.12,2.71-.28,1.81.36,2.37,2.05,1.69,1.81-.73,3.28-2,4.68-3.32,5.77-5.45,10.8-11.47,14.76-18.41,2.77-4.85,6.24-9.28,9.68-13.69.97-1.25,1-1.24-.54-1.56-7.79-1.6-15.58-3.14-23.61-2.6-5.15.34-10.02,1.58-14.42,4.39-1.28.82-2.3,1.89-3.23,3.07-.25.32-.53.81-1.02.45-.5-.36-.09-.78.13-1.11.97-1.44,2.22-2.6,3.69-3.51,4.83-3.01,10.15-4.4,15.79-4.69,7.31-.38,14.51.58,21.56,2.37,2.63.67,4.27.33,5.82-2.02,1.4-2.11,3.16-4.02,5.04-5.78.92-.86,1.92-1.57,3.18-1.83.69-.14,1.41-.17,1.86.48.48.71.02,1.31-.41,1.85-2.09,2.59-4.21,5.16-6.29,7.76-1.1,1.38-1.07,1.4.62,1.74,5.87,1.17,11.74,2.3,17.77,2.1,3.48-.12,6.89-.66,10.03-2.29,1.32-.68,2.41-1.62,3.21-2.87.83-1.3.74-2.58-.23-3.76-.26-.31-.58-.61-.16-.97.39-.33.73-.03,1,.24,1.2,1.19,1.34,2.63.85,4.15-.81,2.5-2.86,3.77-5.06,4.77-2.59,1.18-5.38,1.61-8.2,1.87-6.12.57-12.12-.39-18.03-1.7-2.84-.62-4.34-.05-5.99,2.38-3.92,5.75-8.05,11.37-11.5,17.42-2.87,5.05-5.55,10.23-6.29,16.13-.27,2.18-.22,4.35.53,6.45.3.85.66,1.22,1.68.79,9.78-4.11,19.77-7.58,30.1-10.04.46-.11.8-.31.94-.76,1.12-3.54,1.77-7.02-1.25-10.04-.26-.26-.5-.54-.19-.88.38-.41.7-.05.99.18,2.26,1.82,2.77,4.32,2.6,7.02-.06.97-.22,1.96-.5,2.9-.29.99-.02,1.06.88.88,6.01-1.17,12.07-1.89,18.2-1.64,5.46.23,10.82.99,15.69,3.7,4.14,2.3,7.06,5.6,7.49,10.49.36,4.08-1.01,7.76-3.41,11.02-4.12,5.6-9.85,9.13-16.03,12-8.22,3.81-16.97,5.71-25.89,6.97-5.25.74-10.54,1.04-15.83.99-10.48-.09-20.73-1.8-30.83-4.55-5.49-1.49-10.87-3.29-16.21-5.23-.43-.15-.87-.27-1.3-.41-.04.09-.08.18-.13.28M135.53,107.93c6.3,2.05,12.35,4.14,18.52,5.86,11.3,3.14,22.73,5.55,34.49,5.99,11.34.42,22.51-.66,33.39-4.14,6.18-1.98,12.1-4.49,17.2-8.6,3.75-3.02,6.91-6.51,8.29-11.28,1.29-4.44.74-8.57-2.54-12.03-1.95-2.05-4.4-3.33-7.08-4.21-3.98-1.32-8.09-1.75-12.24-1.83-6.22-.13-12.34.85-18.42,2.07-.62.12-.93.49-1.18,1.04-.64,1.45-1.51,2.78-2.52,3.99-5.06,6.04-11.51,9.42-19.39,9.85-3.96.21-7.75-.53-11-3.03-.56-.44-1-.25-1.53-.03-11.15,4.67-22.13,9.7-33.05,14.87-.92.43-1.93.68-2.93,1.49M131.52,108.24c-.39-.16-.62-.26-.86-.35-5.67-2.01-11.29-4.17-17.07-5.9-11.19-3.35-22.5-5.71-34.28-4.95-5.28.34-10.42,1.2-15.31,3.33-3.48,1.52-6.67,3.47-9.19,6.36-1.72,1.98-2.95,4.21-3.18,6.85-.36,4.09,2.01,7.54,6.29,9.43,3.78,1.68,7.77,2.3,11.85,2.43,10.86.35,21.3-1.89,31.57-5.16,10.27-3.27,20.12-7.61,30.18-12.05M71.85,83.01c-.03,3.71,2.5,5.77,5.99,5.47,3.47-.3,6.67-1.42,9.63-3.2,4.24-2.55,7.95-5.76,11.2-9.47,3.07-3.51,5.79-7.28,7.55-11.66.5-1.25.35-1.47-.93-1.32-5.27.61-10.48,1.51-15.44,3.45-5.33,2.08-10.29,4.79-14.18,9.13-2.1,2.33-3.65,4.93-3.81,7.59M139.77,78.4c.02,2.11.99,2.81,2.93,2.09.63-.24,1.24-.56,1.82-.91,1.91-1.15,3.58-2.6,5.18-4.14,4.3-4.13,7.83-8.88,11.13-13.81,1.16-1.72,2.05-3.55,2.2-5.65.18-2.47-1.28-3.51-3.64-2.64-1.58.58-3.03,1.38-4.32,2.45-6.19,5.09-11.04,11.22-14.31,18.57-.57,1.29-1.01,2.63-1,4.07M174.43,90.35c2.33,2.15,4.94,2.99,7.79,3.05,8.12.17,14.76-3.04,20.03-9.14.93-1.07,1.83-2.23,2.36-3.86-10.41,2.43-20.23,6.06-30.18,9.95M124.23,63.88c.51.03.76.07,1,.05,4.32-.39,8.18-1.98,11.57-4.66,1.29-1.02,2.32-2.26,2.73-3.92.33-1.33-.26-2.17-1.63-2.29-1.24-.1-2.37.34-3.39.96-4.06,2.48-7.25,5.88-10.28,9.86"/>
  </g>
</svg>