<?xml version="1.0" encoding="UTF-8"?>
<svg id="Capa_2" data-name="Capa 2" xmlns="http://www.w3.org/2000/svg" viewBox="0 0 269.76 126.61">
  <defs>
    <style>
      .cls-1 {
        fill: #9074dd;
      }
    </style>
  </defs>
  <g id="Capa_1-2" data-name="Capa 1">
    <path class="cls-1" d="M107.3,114.63c8.31,3.72,16.57,7.25,25.4,9.2,6.31,1.39,12.66,1.91,19.02.22,2.96-.79,5.58-2.17,7.8-4.28,2.79-2.67,3.37-5.73,1.76-9.23-.15-.33-.43-.68-.03-.93.49-.3.89.04,1.16.42,1.38,1.91,1.62,4.04.97,6.24-1.02,3.45-3.55,5.66-6.55,7.3-5.03,2.75-10.5,3.29-16.12,2.93-10.65-.68-20.36-4.57-29.98-8.77-.56-.24-1.19-.38-1.67-.73-2.6-1.9-5.09-1.2-7.83-.13-8.33,3.27-16.96,5.39-25.97,5.44-3.99.02-7.9-.71-11.54-2.45-7.96-3.81-8.02-11.91-4.7-17.27.75-1.21,1.51-2.41,2.6-3.33-.23-.58-.74-.62-1.13-.8-3.68-1.7-7-3.94-9.91-6.75-.64-.62-1.12-.43-1.76-.2-4.02,1.42-8.08,2.43-12.39,1.5-7.54-1.63-12.08-7.46-12.36-15.8-.18-5.29,1.1-10.28,2.91-15.17,1.04-2.82,2.33-5.53,3.78-8.15.63-1.14.27-1.45-.86-1.31-4.23.5-8.42.22-12.57-.66-5.13-1.08-9.88-3.03-13.33-7.13C-.73,39.19-.94,32.83,1.68,26.31c2.4-5.97,6.83-10.34,12.25-13.59,9.37-5.61,19.37-7.71,30.11-4.56,2.68.79,5.03,2.17,7.08,4.06.26.24.53.49.71.79.3.5.85,1.16.15,1.6-.59.37-.77-.46-1.06-.81-2.56-3.05-6.03-4.48-9.8-5.1-12.6-2.08-23.54,1.35-32.68,10.29-3.79,3.7-6.21,8.21-6.7,13.52-.65,6.99,3.07,13.09,9.58,16.05,6.44,2.93,13.23,3.33,20.16,2.67.81-.08,1.09-.64,1.43-1.2,4.89-8.15,10.8-15.51,17.58-22.15,8.35-8.18,17.45-15.4,27.84-20.87C84.97,3.49,91.91.81,99.47.05c1.44-.14,2.86.01,4.22.42,3.46,1.03,4.97,4.03,3.95,7.74-.85,3.1-2.63,5.71-4.53,8.23-4.39,5.84-9.96,10.42-15.86,14.61-12.99,9.23-27.27,15.68-42.74,19.51-.1.02-.2.07-.3.07-3.6-.11-5.34,2.05-6.88,5.02-3.32,6.39-6.3,12.87-7.72,19.97-.56,2.81-.77,5.66-.08,8.47,1.4,5.66,5.25,7.84,10.82,7.89,2.64.02,5.22-.73,7.7-1.7.72-.28,1-.57.49-1.32-5.74-8.49-4.45-16.98.36-25.25,3.55-6.1,8.63-10.63,15.45-12.92,2.18-.73,4.43-1.1,6.75-.6,3.42.73,5.18,2.61,5.63,6.09.04.34-.02.73.46,1.08.75-.98,1.48-1.98,2.25-2.94,4-5.03,8.75-8.9,15.29-10.09,1.4-.26,2.75-.02,4.06.39,1.77.55,2.68,2.41,2.45,4.58-.29,2.65-1.14,5.14-2.38,7.97,1.97-.91,3.16-2.13,4.2-3.45,1.75-2.24,3.27-4.65,5.46-6.53,1.32-1.14,2.77-2.09,4.39-2.71,2.56-.98,4.49.57,4.21,3.32-.17,1.7-.83,3.23-1.67,4.71-.69,1.22-1.35,2.46-1.8,3.88.84-.91,1.69-1.81,2.53-2.72,2.81-3.01,5.66-5.98,9.19-8.19.83-.52,1.71-.89,2.64-1.15,2.73-.75,4.68.85,4.41,3.68-.16,1.7-.87,3.22-1.73,4.68-3.06,5.17-6.84,9.85-10,14.95-.72,1.17-1.48,2.32-1.95,3.62-.26.72-.63,1.54.05,2.13.68.59,1.36-.04,1.93-.39,3.01-1.83,5.23-4.49,7.39-7.19,4.19-5.24,7.94-10.82,12.4-15.84,1.73-1.94,3.52-3.81,5.89-5,1.22-.61,2.48-1.11,3.76-.29,1.34.85,1.44,2.22,1.27,3.66-.32,2.78-1.99,4.97-3.17,7.37-.18.36-.43.69-.64,1.03-.09-.1-.19-.19-.28-.29,2.61-2.41,5.23-4.8,7.82-7.22,1.9-1.78,3.85-3.48,6.28-4.51,3.31-1.41,5.6.28,5.22,3.86-.16,1.54-.77,2.94-1.55,4.27-2.69,4.62-5.92,8.88-8.89,13.31-1.19,1.78-2.25,3.63-3.01,5.63-.2.53-.41,1.1.06,1.57.55.56,1.17.23,1.69-.04,3.03-1.59,5.23-4.15,7.59-6.53,1.9-1.91,3.1-4.17,4.26-6.57,3.1-6.41,7.8-11.37,14.29-14.47,2.38-1.14,4.92-2.01,7.65-1.43,2.46.52,3.4,2.37,2.41,4.7-1.02,2.4-2.9,4.02-5.05,5.34-3.25,1.99-6.69,3.43-10.61,3.37-.6-.01-1.22-.06-1.61.6-2.05,3.51-4.28,6.93-4.93,11.07-.53,3.34,1.2,4.87,4.44,3.89,3.18-.96,5.88-2.76,8.32-4.96,1.66-1.5,3.2-3.12,4.8-4.68.52-.51.76-1.18,1.06-1.83,3.64-7.94,9.18-13.95,17.53-17.05,1.44-.54,2.95-.8,4.5-.58,2.74.39,4.03,2.47,3.17,5.1-.55,1.65-1.6,2.94-3.07,3.86-.4.25-.86.79-1.33.23-.5-.6.17-.88.52-1.2,1.01-.94,2.01-1.87,2.49-3.22.32-.9.49-1.81-.24-2.58-.76-.8-1.76-.77-2.7-.44-1.75.62-3.31,1.61-4.64,2.87-5.55,5.22-9.9,11.29-12.81,18.36-.51,1.23-.9,2.48-.86,3.84.06,2.1,1.07,2.86,3.09,2.21,2.37-.77,4.29-2.3,6.19-3.83,3.46-2.79,6.35-6.16,9.22-9.51,1.85-2.16,2.92-4.86,4.37-7.31,3.04-5.12,6.27-10.1,9.92-14.81.42-.54,1.16-1.12-.23-1.41-10.05-2.09-20.09-4.36-30.47-3.67-6.63.44-12.97,1.92-18.47,5.93-1.15.84-2.21,1.79-3.15,2.87-.25.29-.55.76-.99.45-.46-.32-.08-.74.11-1.07,1.01-1.72,2.57-2.87,4.17-3.96,5.46-3.74,11.63-5.17,18.12-5.62,10.53-.74,20.75,1.21,30.9,3.64,1.37.33,2.13.11,3.07-1.04,2.36-2.91,4.71-5.87,7.69-8.23.85-.67,1.7-1.3,2.83-1.36.66-.04,1.38-.08,1.77.61.41.73-.13,1.23-.56,1.74-2.47,2.91-4.96,5.79-7.17,8.9-.14.2-.28.42-.57.87,1.95.38,3.76.74,5.57,1.07,5.01.91,10.03,1.63,15.15,1.45,3.75-.13,7.37-.78,10.67-2.71,1.21-.71,2.24-1.58,2.9-2.84.66-1.26.78-2.5-.01-3.76-.22-.35-.75-.75-.13-1.14.52-.33.83.18,1.12.51,1.16,1.32,1.37,3.17.5,4.84-1.11,2.14-2.97,3.44-5.11,4.38-3.11,1.37-6.41,1.94-9.79,2.07-6.91.28-13.66-.99-20.41-2.26-.88-.17-1.53-.18-2.11.64-6.22,8.69-12.19,17.53-16.25,27.49-1.15,2.83-2.1,5.72-2.31,8.81-.07,1.08.11,1.4,1.3,1.28,8.97-.97,17.95-1.24,26.92-.11,1.56.2,2.41-.25,3.16-1.59,1.47-2.62,2.55-5.3,2.34-8.38-.16-2.27-.87-4.17-3.14-5.15-.37-.16-.85-.35-.58-.86.24-.46.73-.27,1.1-.15,2.09.74,3.35,2.26,3.89,4.35,1.01,3.91-.19,7.42-2.01,10.81-.23.43-.67.77-.68,1.35,2.23.47,4.47.87,6.67,1.43,5.45,1.39,10.71,3.26,15.09,6.98,7.07,6,7.73,14.12,2.17,21.37-3.81,4.97-9.11,7.85-14.9,9.91-9.57,3.4-19.49,4.55-29.56,4.17-13.82-.52-27.17-3.46-40.14-8.24-9.88-3.64-19.49-7.89-29.14-12.08-2.19-.95-4.43-1.79-6.62-2.74-.83-.36-1.53-.26-2.32.12-9.13,4.45-18.27,8.9-27.43,13.3-2.79,1.34-5.66,2.51-8.63,3.82M147.06,95.81c8.61,3.43,16.93,6.83,25.31,10.07,14.43,5.59,29.09,10.43,44.56,12.21,10.32,1.19,20.6.94,30.66-2.03,6.13-1.81,11.81-4.45,16.14-9.35,3.04-3.44,4.78-7.38,4.15-12.13-.59-4.43-3.21-7.49-6.69-9.92-5.73-4.01-12.39-5.48-19.1-6.78-.92-.18-1.5.3-2.1.92-6.27,6.41-13.9,9.17-22.8,8.15-5-.58-8.79-3.05-10.65-7.93-.3-.79-.67-.99-1.46-.83-1.99.39-4,.69-6,1.06-10.71,1.97-21.2,4.83-31.48,8.39-6.86,2.38-13.61,5.05-20.53,8.16M164.92,66.12c-1.04,1.14-1.85,2.05-2.69,2.92-.88.92-1.76,1.83-2.7,2.69-1.62,1.47-3.27,2.93-5.5,3.42-2.95.64-5.04-1.26-4.67-4.25.26-2.2.95-4.24,2.04-6.18,1.87-3.34,4.18-6.37,6.43-9.44,1.68-2.29,3.46-4.53,4.8-7.05.31-.58.62-1.3.03-1.83-.54-.49-1.16-.03-1.7.21-.32.14-.61.36-.91.55-2.76,1.7-4.92,4.1-7.14,6.39-5.88,6.06-11.29,12.53-16.15,19.44-1.39,1.98-3.11,2.24-5.16,2.02-1.28-.13-1.55-.73-.94-1.88.21-.4.48-.78.74-1.15,4.38-6.3,8.77-12.59,13.12-18.91.95-1.38,1.76-2.85,2.58-4.31.36-.64.99-1.46.27-2.06-.73-.6-1.37.26-2.01.62-.18.1-.33.23-.49.36-2.46,1.93-4.41,4.35-6.32,6.78-3.45,4.39-6.76,8.89-10.25,13.26-2.15,2.7-4.44,5.32-7.58,6.97-1.43.76-2.92.93-4.34-.02-1.44-.96-1.8-2.41-1.59-4.02.26-1.98.85-3.86,1.82-5.62,2.25-4.06,5.03-7.75,7.84-11.43,1.39-1.82,2.76-3.65,3.85-5.67.25-.47.63-1.04.07-1.53-.48-.42-1.06-.23-1.58.01-.41.19-.8.43-1.19.67-1.97,1.2-3.62,2.79-5.25,4.39-6.51,6.38-12.27,13.42-17.55,20.84-1.42,2-2.99,2.88-5.34,2.56-.59-.08-1.28.14-1.67-.48-.44-.7.19-1.13.52-1.6,4.13-5.98,8.29-11.94,12.4-17.93,1.41-2.05,2.95-4.02,4-6.3.32-.68.88-1.5.24-2.11-.73-.7-1.37.16-1.98.54-2.14,1.37-3.68,3.32-5.2,5.3-2.04,2.66-3.98,5.45-7.41,6.55-.53.17-.77.65-1,1.1-1.96,3.67-4.59,6.83-7.59,9.66-2.57,2.42-5.42,4.48-8.93,5.35-3.69.91-6.45-.93-7.14-4.65-.09-.48-.19-.95-.33-1.67-1.14,1.84-2.1,3.49-3.2,5.07-4.74,6.78-10.64,12.26-17.88,16.25-.85.47-1.07.7-.27,1.44,2.95,2.72,6.37,4.69,9.93,6.46.76.38,1.12-.13,1.57-.52,4.29-3.73,9.26-6.22,14.65-7.9,11.82-3.69,23.89-3.98,36.05-2.37,9.86,1.3,19.41,3.94,28.76,7.29.77.27,1.38.3,2.16-.06,10.23-4.69,20.87-8.28,31.68-11.35,9.09-2.58,18.3-4.69,27.7-5.84.95-.12,1.28-.47,1.18-1.48-.23-2.39.13-4.76.64-7.1.41-1.87,1-3.68,1.54-5.55-1.24,1.2-2.36,2.49-3.52,3.73-3.04,3.25-6.33,6.21-10.5,7.92-4.01,1.64-7.62-.76-7.78-5.09-.04-1.07,0-2.15,0-3.53-.73.79-1.26,1.41-1.84,1.97-2.75,2.67-5.78,4.91-9.37,6.41-5.92,2.46-10.61-.83-10.09-7.21.02-.25.06-.5.13-1.05M40.76,49.78c.47.1.57.15.66.13,1.53-.35,3.08-.65,4.6-1.06,10.94-2.99,21.35-7.26,31.14-12.98,8.77-5.13,17-10.98,23.62-18.8,2.4-2.84,4.57-5.86,5.43-9.59.79-3.41-.92-5.66-4.43-5.92-3.53-.26-6.88.54-10.11,1.84-11.03,4.46-20.15,11.72-28.67,19.81-6.72,6.38-12.73,13.41-18.25,20.85-1.35,1.82-2.6,3.71-3.99,5.71M141.53,95.75c-4.67-1.69-9.04-3.16-13.52-4.33-7.44-1.95-14.98-3.38-22.66-3.77-7.43-.37-14.82.07-22.1,1.84-6.29,1.53-12.24,3.73-17.39,7.78-.51.4-1.39.72-1.33,1.36.08.79,1.09.75,1.71.98,12.19,4.52,24.74,8.06,36.7,13.22.99.43,1.78.31,2.71-.15,8.5-4.13,17.01-8.24,25.55-12.3,3.29-1.57,6.65-2.98,10.32-4.62M46.38,77.38c-.07,3.91,1.08,7.4,3.08,10.7.67,1.1,1.15,1.24,2.23.59,7.08-4.24,13.01-9.68,17.65-16.5,2.76-4.06,5.24-8.29,5.84-13.25.57-4.76-1.27-7.74-6.55-7.58-3.56.11-6.68,1.59-9.54,3.62-7.74,5.5-12.24,12.82-12.71,22.42M102.14,113.77c-3.69-1.4-7.38-2.82-11.08-4.2-8.89-3.32-18.07-5.81-26.84-9.46-.72-.3-1.21-.27-1.74.34-1.25,1.42-2.29,2.96-3.01,4.72-2.21,5.39-.39,10.76,4.67,13.37,2.45,1.26,5.12,1.96,7.88,2.16,10.65.76,20.4-2.64,30.11-6.93M77.64,70.33c0,2.9,1.1,3.76,3.45,3.05,1.22-.37,2.37-.93,3.44-1.61,4.78-3.04,8.3-7.26,11.35-11.94.52-.8-.05-.91-.56-1.17-1.7-.88-2.19-2.03-1.73-3.9.26-1.05.7-2.03,1.31-2.9.98-1.4,2.1-2.67,4.08-2.4.66.09.76-.31.82-.8.28-2.15-1.74-3.47-4.09-2.58-2.02.77-3.75,2-5.33,3.47-3.9,3.65-7.05,7.87-9.57,12.54-1.46,2.71-2.96,5.46-3.18,8.23M227.39,76.63c-5.8.29-11.09.28-16.35.88-.85.1-1.21.32-1.02,1.2.5,2.33,1.51,4.29,3.68,5.52,2.97,1.69,6.16,1.88,9.45,1.45,5.78-.75,10.8-3.09,15.03-7.11.27-.26.76-.5.6-.96-.14-.38-.61-.29-.96-.31-3.65-.24-7.3-.47-10.43-.66M188.05,45.83c-1.23-.02-2.25.56-3.23,1.19-3.55,2.28-6.37,5.31-8.92,8.63-.18.23-.49.48-.31.79.22.38.64.19.97.15,3.54-.46,6.78-1.75,9.65-3.84,1.59-1.15,3.18-2.4,3.7-4.48.41-1.61-.23-2.46-1.87-2.44M99.43,51.89c.03-1.08-.28-1.26-1.23-.84-1.28.56-3.17,3.82-3.01,5.21.07.61.38,1.05.97,1.25.4.13.85.17,1.09-.26.96-1.73,1.8-3.52,2.19-5.36"/>
  </g>
</svg>