<?xml version="1.0" encoding="UTF-8"?>
<svg id="Capa_2" data-name="Capa 2" xmlns="http://www.w3.org/2000/svg" viewBox="0 0 1307.24 285">
  <defs>
    <style>
      .cls-1 {
        fill: #e94f95;
      }
    </style>
  </defs>
  <g id="Capa_1-2" data-name="Capa 1">
    <g>
      <g>
        <path class="cls-1" d="M0,180c0-61.15,39.4-105,100.44-105,57.17,0,91.94,33.85,96.96,80h-62.2c-1.93-16.15-8.89-33.85-33.61-33.85s-38.24,21.92-38.24,58.85,12.36,58.85,38.24,58.85c24.34,0,31.68-16.54,33.61-34.62h62.2c-3.09,46.92-38.63,80.77-95.42,80.77C39.4,285,0,241.54,0,180Z"/>
        <path class="cls-1" d="M348.45,81.54v53.85c-5.02-.77-8.5-1.15-12.75-1.15-27.81,0-53.31,17.31-53.31,52.69v91.54h-61.81V81.54h61.81v32.31h.77c9.66-20.77,26.66-33.85,48.29-33.85,5.41,0,10.04,0,17,1.54Z"/>
        <path class="cls-1" d="M355.39,226.92c0-40.77,33.61-56.54,75.72-65.38,21.63-4.62,52.15-7.69,52.15-27.31,0-10.77-8.5-17.69-26.27-17.69-22.79,0-33.22,9.23-35.15,28.46h-58.72c1.93-37.69,29.75-70,96.58-70,53.7,0,83.44,21.54,83.44,81.92v76.15c0,10.38,1.16,15,7.34,15,1.55,0,2.7,0,5.02-.38v29.23c-12.36,2.31-25.11,3.46-34,3.46-24.72,0-34-9.23-37.09-25.77h-.77c-13.91,17.31-36.7,30-65.29,30-38.63,0-62.97-22.69-62.97-57.69ZM483.26,198.85v-16.54c-8.11,3.08-17.38,5.38-33.61,9.23-22.79,5.38-30.9,15-30.9,28.85,0,15,9.66,21.92,25.5,21.92,24.72,0,39.02-20.77,39.02-43.46Z"/>
        <path class="cls-1" d="M655.55,69.23v12.31h34.38v46.15h-34.38v150.77h-61.81V127.69h-26.66v-46.15h26.66v-13.85c0-48.08,18.54-67.69,61.04-67.69,11.59,0,22.02,1.15,35.15,3.85v43.46c-7.34-.77-10.43-1.15-15.45-1.15-10.82,0-18.93,1.92-18.93,23.08Z"/>
        <path class="cls-1" d="M825.13,234.62v43.46c-13.13,3.08-24.34,4.23-36.7,4.23-43.27,0-61.81-19.62-61.81-67.69v-86.92h-27.43v-46.15h27.43V26.54h61.81v55h34.38v46.15h-34.38v85.38c0,21.15,8.11,23.08,20.09,23.08,5.79,0,9.27-.38,16.61-1.54Z"/>
      </g>
      <g>
        <path class="cls-1" d="M857.97,278.46V3.46h25.11v275h-25.11Z"/>
        <path class="cls-1" d="M919.01,228.85c0-42.31,30.13-55.77,81.13-64.62,32.45-5.77,53.31-8.08,53.31-31.54,0-20-13.13-33.46-44.81-33.46-38.24,0-51.77,13.46-53.7,42.31h-26.66c1.93-34.62,23.95-64.23,81.13-64.23,36.31,0,68.38,15.38,68.38,62.31v98.08c0,15.77,2.32,23.08,11.2,23.08,1.55,0,3.09,0,5.41-.38v18.08c-4.25.77-8.5,1.54-13.13,1.54-16.61,0-26.27-6.54-27.81-31.15h-.77c-13.52,22.31-37.09,34.62-69.15,34.62-39.4,0-64.51-21.92-64.51-54.62ZM1053.45,205v-36.54c-5.79,8.08-26.66,12.69-50.22,16.54-38.24,6.92-57.95,16.54-57.95,41.54,0,22.69,12.75,35,41.34,35,40.18,0,66.83-21.15,66.83-56.54Z"/>
        <path class="cls-1" d="M1307.24,180.38c0,64.23-38.63,102.69-86.92,102.69-34.38,0-54.86-16.92-66.45-38.08h-.77v33.46h-25.11V3.46h25.11v110.38h.77c11.59-18.85,32.06-36.54,66.45-36.54,48.29,0,86.92,38.46,86.92,103.08ZM1280.97,180.38c0-44.23-22.41-81.54-63.36-81.54-37.86,0-64.51,31.92-64.51,81.54s26.66,80.77,64.51,80.77c40.95,0,63.36-36.92,63.36-80.77Z"/>
      </g>
    </g>
  </g>
</svg>