<?xml version="1.0" encoding="UTF-8"?>
<svg id="Capa_2" data-name="Capa 2" xmlns="http://www.w3.org/2000/svg" viewBox="0 0 333 49.8">
  <defs>
    <style>
      .cls-1 {
        fill: #ffffff;
      }
    </style>
  </defs>
  <g id="Capa_1-2" data-name="Capa 1">
    <g>
      <path class="cls-1" d="M.49,40.61V8.76C.49,5.37.37,3.15,0,.62h29.13l-1.6,3.95c-6.42-2.35-11.17-2.78-16.54-2.78h-1.42v22.09h3.58c3.83,0,7.04-.19,10.55-.62v2.59c-3.52-.43-6.73-.62-10.55-.62h-3.58v15.37c0,3.39.12,5.62.49,8.15H0c.37-2.53.49-4.75.49-8.15"/>
      <path class="cls-1" d="M26.72,40.61v-15.43c0-3.27-.12-5.55-.49-8.15h8.7c-.37,2.59-.49,4.88-.49,8.15v1.67c2.53-7.78,7.04-10.68,13.39-10.68.37.8.62,1.6.62,2.35,0,2.04-1.48,3.89-4.01,3.89-3.83,0-8.08.62-10,6.54v11.66c0,3.27.12,5.55.49,8.15h-8.7c.37-2.59.49-4.88.49-8.15"/>
      <path class="cls-1" d="M45.48,32.83c0-10.74,8.27-16.79,17.34-16.79s17.4,6.05,17.4,16.79-8.33,16.91-17.4,16.91-17.34-6.11-17.34-16.91M62.82,48.51c5.62,0,8.82-5,8.76-15.68,0-10.68-3.09-15.61-8.76-15.61s-8.82,4.94-8.76,15.61c0,10.68,3.09,15.68,8.76,15.68"/>
      <path class="cls-1" d="M124.23,40.61v-14.13c0-4.51-1.85-6.97-5-6.97-2.9,0-5.74,2.22-7.65,5.8.06.37.06.74.06,1.17v14.13c0,3.27.12,5.55.56,8.15h-8.76c.37-2.59.49-4.88.49-8.15v-14.13c0-4.51-1.79-6.97-4.94-6.97-2.96,0-5.74,2.22-7.65,5.74v15.37c0,3.27.12,5.55.49,8.15h-8.7c.37-2.59.49-4.88.49-8.15v-15.43c0-3.27-.12-5.55-.49-8.15h8.7c-.31,2.1-.43,3.95-.49,6.29,2.65-4.38,7.1-7.28,11.66-7.28s7.59,2.84,8.45,7.71c2.53-4.63,7.1-7.71,11.79-7.71,5.37,0,8.7,3.89,8.7,10.43v14.13c0,3.27.12,5.55.49,8.15h-8.7c.37-2.59.49-4.88.49-8.15"/>
      <path class="cls-1" d="M210.63,40.61v-14.13c0-4.69-1.85-6.97-5.12-6.97-3.02,0-6.11,2.16-8.08,5.62v15.49c0,3.27.12,5.55.49,8.15h-8.7c.37-2.59.49-4.88.49-8.15V8.15c0-3.27-.12-5.55-.49-8.15h8.7c-.37,2.59-.49,4.88-.49,8.15v15.18c2.72-4.38,7.41-7.28,12.16-7.28,5.43,0,8.76,3.7,8.76,10.43v14.13c0,3.27.12,5.55.49,8.15h-8.7c.37-2.59.49-4.88.49-8.15"/>
      <path class="cls-1" d="M221.55,32.65c0-10.12,7.71-16.6,16.29-16.6,7.78,0,14.5,5.25,14.75,13.52h-23.02v.06c0,8.27,4.32,16.17,11.66,16.17,5.25,0,9.69-3.89,11.29-9.87l.93.19c-2.22,8.76-8.64,13.7-15.74,13.7-8.58,0-16.17-7.04-16.17-17.16M244.44,28.26c-.19-7.34-2.59-11.05-6.79-11.05-4.57,0-7.71,4.26-8.02,11.05h14.81Z"/>
      <path class="cls-1" d="M253.76,41.35c0-6.17,5.68-8.08,11.42-9.94,5.06-1.6,10.49-3.15,10.49-8.82,0-3.33-2.1-5.37-5.18-5.37-4.01,0-6.23,3.27-7.53,5.18-1.11,1.6-2.22,2.9-4.32,2.9s-3.15-1.42-3.21-4.57c4.32-2.78,9.69-4.69,14.69-4.69,7.71,0,12.9,3.95,12.9,11.29v11.23c0,5,.31,6.73,1.42,10.18h-8.45c-.37-2.84-.56-6.17-.56-9.38-2.35,7.34-7.71,10.43-12.47,10.43s-9.2-3.15-9.2-8.45M267.03,45.54c3.83,0,8.39-3.46,8.39-11.6v-6.54c-1.23,2.22-3.76,3.02-6.97,4.32-4.13,1.91-7.04,3.7-7.04,7.71s2.65,6.11,5.62,6.11"/>
      <path class="cls-1" d="M288.44,40.61v-15.43c0-3.27-.12-5.55-.49-8.15h8.7c-.37,2.59-.49,4.88-.49,8.15v1.67c2.53-7.78,7.04-10.68,13.39-10.68.37.8.62,1.6.62,2.35,0,2.04-1.48,3.89-4.01,3.89-3.83,0-8.08.62-10,6.54v11.66c0,3.27.12,5.55.49,8.15h-8.7c.37-2.59.49-4.88.49-8.15"/>
      <path class="cls-1" d="M313.13,39.74v-21.29h-4.88v-1.42h.74c5.49,0,5.8-4.07,5.8-12.65h7.78c0,5.55-1.85,10.98-8.82,12.65h17.59v1.42h-10.49v20.49c0,4.26,1.73,6.85,4.57,6.85,3.52,0,5.8-3.52,6.6-10.06h.99c-1.05,9.2-4.81,14.07-10.98,14.07-5.55,0-8.89-3.83-8.89-10.06"/>
      <path class="cls-1" d="M139.81,37.68l4.39-20.74c-2.67.07-5.02.46-7.6,1.55l-.36-2.21h20.9l-1.29,2.21c-2.15-1.06-4.29-1.49-6.9-1.55l-4.39,20.74c-.3,1.52-.53,2.81-.63,4.36h-5.28c.43-1.25.73-2.31,1.16-4.36"/>
      <path class="cls-1" d="M162.96,39.89l2.11-8.65c.69-2.81.46-4.26-.92-4.26-2.44,0-5.78,4.92-7.17,11.36l-.79,3.7h-4.46c.53-1.68,1.06-3.67,1.52-5.81l3.27-15.52c.4-1.88.53-3.53.46-4.82h4.79l-3.63,16.97c1.82-4.33,4.92-8.32,8.65-8.32,2.51,0,3.5,1.92,2.54,5.94l-2.31,9.48c1.25-.5,2.64-1.68,3.43-3.14l.46.2c-1.62,3.14-4.59,5.58-6.57,5.58-1.32,0-1.78-.96-1.39-2.71"/>
      <path class="cls-1" d="M170.75,36.29c0-5.78,5.28-11.76,11.26-11.76,2.87,0,4.59,1.35,4.59,3.04,0,2.48-3.67,5.91-11.49,6.6-.03.3-.03.56-.03.86,0,3.2,1.55,5.28,4.19,5.28,2.31,0,4.99-1.88,6.77-5.71l.5.17c-2.11,5.28-6.08,7.83-9.64,7.83s-6.14-2.44-6.14-6.31M183.14,27.14c0-1.02-.76-1.62-1.82-1.62-2.87,0-5.61,3.9-6.14,8.09,5.02-.89,7.96-4.43,7.96-6.47"/>
    </g>
  </g>
</svg>