<?xml version="1.0" encoding="UTF-8"?>
<svg id="Capa_2" data-name="Capa 2" xmlns="http://www.w3.org/2000/svg" viewBox="0 0 346.84 127.82">
  <defs>
    <style>
      .cls-1 {
        fill: #c0bc6a;
      }
    </style>
  </defs>
  <g id="Capa_1-2" data-name="Capa 1">
    <g>
      <path class="cls-1" d="M127.37,83.03c5.34,1.54,10.26,3.53,15.02,5.95,7.21,3.67,14.02,8.03,20.94,12.19,1.2.72,2.18.69,3.42.22,9.83-3.76,19.66-7.5,29.53-11.16,1.69-.63,2.91-1.43,3.93-3.04,3.4-5.42,8.67-8.36,14.62-10.16,3.55-1.07,7.16-2.07,10.93-1.03.63.17,1.26.36,1.87.58.32.12.72.31.58.73-.16.5-.62.42-1,.29-.82-.29-1.65-.55-2.52-.7-3.72-.64-7.19.32-10.63,1.56-4.5,1.63-8.62,3.83-11.65,7.68-.53.68-1.1,1.35-1.38,2.4,1.64-.52,3.17-.98,4.68-1.47,9.19-3,18.54-5.35,28.11-6.76,1.34-.2,2.67-.45,4.02-.54,1.08-.07,1.28-.72,1.34-1.56.21-2.67-.11-5.32-.3-7.97-.41-5.52-1.48-10.98-1.83-16.62-.5.23-.66.7-.91,1.06-3.48,5.08-6.81,10.26-10.95,14.86-1.47,1.63-3.04,3.14-4.95,4.25-.72.42-1.47.77-2.3.92-2.26.42-3.99-.92-4.12-3.22-.06-1.04-.03-2.08,0-3.24-.53.65-1.07,1.29-1.59,1.95-1.27,1.63-2.71,3.08-4.33,4.35-1,.79-2.09,1.44-3.37,1.68-2.41.44-4-.88-4.11-3.32-.14-3.11,1.17-5.78,2.52-8.43,2.69-5.31,6.18-10.14,9.32-15.17.97-1.55,1.98-3.09,2.62-4.83.18-.49.42-1.02,0-1.49-.45-.51-.98-.15-1.45,0-1.05.35-1.94.97-2.81,1.65-5.82,4.61-10.21,10.49-14.63,16.36-2.42,3.21-4.57,6.61-6.71,10.01-.93,1.47-3.14,2.2-4.69,1.53-.99-.43-.61-1.11-.24-1.72,1.26-2.09,2.57-4.16,3.82-6.26,3.56-5.96,7.11-11.93,10.66-17.9.52-.87.92-1.78,1.15-2.77.09-.38.28-.78-.09-1.1-.38-.33-.83-.22-1.24-.05-1.51.63-2.82,1.59-4,2.69-4.3,4-8.1,8.43-11.69,13.07-3.15,4.08-6.13,8.28-8.93,12.61-.93,1.43-3.16,2.12-4.74,1.48-.81-.33-.7-.86-.32-1.47,2.67-4.35,5.38-8.69,7.99-13.08,2.46-4.12,5.17-8.1,7.19-12.48.39-.84.75-1.68.82-2.61.09-1.16-.38-1.56-1.49-1.23-1.89.56-3.44,1.7-4.88,2.98-1.7,1.51-3.22,3.2-4.56,5.04-.24.33-.51.88-1.01.57-.53-.34-.1-.8.12-1.13,2.48-3.61,5.34-6.82,9.59-8.4,3.44-1.28,5.67.59,5.07,4.21-.57,3.42-2.26,6.4-3.85,9.41-.34.64-.74,1.24-1.01,1.92,2.12-2.61,4.33-5.14,6.57-7.62,2.05-2.27,4.26-4.38,6.74-6.19,1.08-.78,2.28-1.3,3.58-1.56,2.11-.41,3.4.61,3.53,2.75.07,1.16-.22,2.26-.63,3.32-1,2.56-2.21,5.02-3.56,7.45,1.4-1.69,2.91-3.26,4.39-4.86,2.49-2.7,5.11-5.26,8.19-7.31.74-.49,1.52-.86,2.37-1.09,2.71-.71,4.54.87,4.17,3.64-.3,2.24-1.15,4.31-2.3,6.23-2.3,3.86-4.66,7.69-7.01,11.53-1.74,2.83-3.53,5.62-4.86,8.68-.33.76-.68,1.52-.67,2.38,0,1.11.52,1.51,1.59,1.19.76-.23,1.43-.66,2.03-1.18,3.99-3.42,7.27-7.35,9.41-12.22,2.89-6.58,6.84-12.57,10.8-18.54.87-1.31,3.27-1.91,4.73-1.3.78.33.77.83.33,1.45-3.38,4.78-6.41,9.79-9.3,14.88-1.96,3.45-3.85,6.96-5.28,10.68-.43,1.11-.71,2.25-.78,3.43-.07,1.12.44,1.53,1.53,1.23,1.03-.29,1.87-.91,2.69-1.58,4.04-3.32,6.9-7.63,9.91-11.81,1.55-2.16,2.95-4.43,4.45-6.63.97-1.42,1.64-2.94,2.14-4.59.83-2.74,2.22-5.17,4.92-6.5,1.98-.98,4.11-1.19,6.26-.68,2.91.68,4.44,3.15,3.9,6.14-.34,1.85-1.24,3.34-2.76,4.44-.35.25-.75.8-1.23.29-.38-.41.01-.82.25-1.17.68-1.02,1.25-2.1,1.75-3.22.63-1.43.68-2.85-.33-4.07-1.09-1.31-2.68-1.67-4.28-1.45-2.91.41-4.64,2.78-4.96,6.36-.32,3.63.54,7.12,1.2,10.63,1.14,6.11,1.8,12.26,1.22,18.49-.13,1.41.08,1.47,1.69,1.4,10.15-.47,20.17.11,29.73,4.03,3.17,1.3,6.13,3,8.49,5.55,5.15,5.57,5.97,12.27,2.36,18.96-2.29,4.23-5.73,7.35-9.71,9.91-7.86,5.05-16.61,7.62-25.78,8.97-6.24.92-12.51,1.24-18.81,1-9.21-.35-18.23-1.85-27.02-4.65-10.83-3.45-21.07-8.18-30.86-13.94-2.52-1.48-5.08-2.91-7.52-4.53-1.4-.93-2.6-.97-4.14-.4-7.99,2.98-16.15,5.39-24.56,6.88-5.04.9-10.12,1.52-15.24,1.35-6.46-.22-12.81-1.13-18.49-4.55-3.22-1.94-5.85-4.45-7.02-8.16-1.66-5.27.29-10.63,5.07-13.99,5.23-3.67,11.12-4.64,17.34-4.15,1.52.12,3.03.36,4.54.6.69.11,1.15-.19,1.66-.57,2.82-2.11,5.02-4.85,7.41-7.39.84-.89,1.62-1.83,2.46-2.72.65-.69.49-1.02-.4-1.11-2.71-.29-5.31-1.03-7.9-1.82-1.47-.45-2.87-1.06-4.2-1.8-.9-.5-1.55-.45-2.33.22-4.65,3.99-9.67,7.48-14.87,10.7-8.98,5.57-18.66,8.98-29.28,9.73-8.31.58-16.24-.95-24.05-3.57-4.48-1.5-8.8-3.39-13.17-5.15-1.12-.45-1.99-.38-3.04.27-6.4,3.99-13.35,6.25-20.95,6.19-3.41-.03-6.8-.34-10.06-1.5-1.46-.52-2.81-1.2-3.89-2.34-1.5-1.59-1.49-3.28.04-4.86,1.63-1.68,3.75-2.36,5.93-2.86,8.22-1.88,16.32-.79,24.37,1.14,4.39,1.06,4.4,1.11,7.65-2.12,2.55-2.53,4.88-5.24,7.05-8.1.18-.24.51-.47.4-.78-.15-.43-.6-.27-.92-.26-3.56.12-7.07-.2-10.52-1.07-3.2-.81-6.06-2.24-8.3-4.73-3.55-3.95-3.58-8.46-1.88-13.13,2.23-6.15,6.68-10.33,12.29-13.39,6.9-3.76,14.36-5.34,22.15-5.54,4.24-.11,8.47.02,12.69.53,1.31.16,2.26-.17,3.21-1.21,4.15-4.53,8.64-8.67,14.36-11.19,4.87-2.14,9.89-3.47,15.27-2.27.55.12,1.1.29,1.63.5,2.7,1.03,4.73,2.73,5.16,5.73.46,3.24-.86,5.82-3.43,7.74-3.08,2.3-6.7,3.1-10.44,3.45-5.64.53-11.25-.07-16.85-.64-.13-.01-.26-.03-.39-.06-1.91-.43-3.2.18-4.36,1.89-5.55,8.21-11.22,16.35-16.89,24.48-1.67,2.39-3.47,4.68-5.3,7.13,4.31-.76,8.16-2.51,12.14-3.94,3.27-1.18,4.73-3.94,6.76-6.26,3.04-3.48,6.4-6.59,10.79-8.31.77-.3,1.57-.55,2.39-.69,3.22-.56,4.78.56,5.32,3.89.62-.94,1.16-1.76,1.72-2.57.9-1.31,3.36-2.1,4.79-1.49,1.03.43.57,1.05.13,1.67-2.71,3.86-5.34,7.78-7.66,11.89-2.04,3.6-4.18,7.18-5.28,11.23-.37,1.36-.82,2.83.39,3.94,1.23,1.12,2.66.5,3.95-.05,3.85-1.65,6.44-4.71,8.74-8.05.64-.93,1.11-1.98,1.68-2.96.21-.36.42-.9.96-.63.53.27.27.78.1,1.16-1.59,3.58-3.96,6.56-6.95,9.07-1.9,1.6-3.98,2.82-6.49,3.2-3.74.56-6.28-1.88-5.94-5.67.22-2.41,1.02-4.66,1.78-6.95-1.85,2.2-3.76,4.34-5.73,6.41-1.57,1.64-3.21,3.21-5.08,4.52-.29.2-.58.4-.88.56-1.55.8-3.21,1.53-4.83.47-1.67-1.1-1.9-2.95-1.74-4.8.23-2.74,1.25-5.25,2.47-7.68.23-.46.6-.86.63-1.63-.95.41-1.81.78-2.67,1.14-3.67,1.54-7.38,2.94-11.34,3.58-.61.1-1.17.27-1.59.8-3.89,4.91-8.12,9.49-13.16,13.18-.02.37.23.42.43.48,7.36,2.34,14.67,4.85,22.25,6.46,11.76,2.5,23.26,2.01,34.41-2.78,6.62-2.85,12.62-6.74,18.33-11.1,1.46-1.11,2.92-2.23,4.36-3.35,1.19-.93,1.17-.91-.08-1.79-4.9-3.46-8.37-7.9-9.39-13.95-1.87-11.12,4.12-21.89,14.82-26.25,5.7-2.32,11.6-2.92,17.59-1.46,5.35,1.3,9.43,4.28,11.47,9.58.43,1.11.82.81,1.43.21,3.9-3.83,7.74-7.71,11.72-11.44,6.88-6.45,13.79-12.88,21.64-18.18,1.7-1.15,3.47-2.19,5.45-2.82.67-.21,1.34-.39,2.05-.35,1.3.07,1.98.77,2.02,2.08.03,1.18-.43,2.22-.92,3.24-1.78,3.73-4.26,7.01-6.75,10.27-8.43,11.04-17.21,21.8-26.06,32.5-5.98,7.23-11.93,14.49-18.43,21.67,2.92-.06,5.57-.4,8.16-1.07,5.87-1.52,11.18-4,15.1-8.85.21-.26.44-.67.84-.41.39.25.14.64-.01.94-.59,1.14-1.4,2.11-2.37,2.94-5.12,4.39-11.18,6.52-17.78,7.32-1.25.15-2.52.21-3.78.32-.84.07-1.56.34-2.21.97-4.64,4.53-9.91,8.13-15.85,10.75-.11.05-.21.14-.52.35M198.46,90.8c-10.94,3.7-21.39,8.02-32.22,11.97.41.3.54.41.69.5,11.4,6.69,23.2,12.52,35.78,16.7,9.99,3.32,20.17,5.67,30.7,6.25,6.68.37,13.36.14,19.98-.99,7.91-1.35,15.45-3.77,22.09-8.43,4.49-3.15,8.15-7.03,9.74-12.45,1.72-5.85.57-11-3.92-15.34-3.38-3.27-7.51-5.03-11.91-6.3-4.63-1.33-9.39-2.03-14.19-2.32-3.4-.2-6.81-.14-10.22.01-1,.04-1.71.29-1.76,1.56-.04,1.03-.4,2.05-.7,3.05-3.21,10.75-9.76,18.39-20.63,21.91-5.15,1.67-10.38,1.98-15.56.12-4.03-1.44-7.02-4-8.25-8.29-.76-2.62-.38-5.18.39-7.97M162.7,102.9c0-.13.01-.26.02-.39-1.97-1.19-3.95-2.37-5.91-3.58-6.09-3.76-12.15-7.57-18.65-10.61-6.28-2.93-12.75-5.28-19.75-5.66-6.38-.34-12.33.8-17.29,5.26-3.98,3.58-4.85,9.45-1.94,13.92,2.54,3.91,6.36,6.01,10.64,7.38,7.17,2.3,14.52,2.32,21.9,1.51,7.57-.84,14.94-2.64,22.19-4.92,2.94-.93,5.86-1.93,8.79-2.9M135.5,23.41c-7.2.2-13.77,2.93-18.76,8.98-7.28,8.83-7.71,22.8,3.22,31.13,1.44,1.1,1.48,1.11,2.84-.13,3.68-3.35,7.4-6.66,11.01-10.08,6.14-5.83,12.21-11.74,18.32-17.6.63-.6.73-1.22.48-2-.67-2.13-1.74-4.01-3.35-5.55-3.7-3.53-8.28-4.65-13.77-4.74M73.01,27.38c-5.52-.38-10.66-1.06-15.87-.55-7.18.7-14.02,2.37-20.12,6.4-5.26,3.48-9.23,7.97-10.83,14.23-1.37,5.35.51,9.69,5.33,12.37.83.46,1.73.83,2.63,1.16,3.93,1.45,8.03,1.5,12.15,1.43,1.07-.02,1.73-.38,2.36-1.26,6.19-8.67,11.95-17.63,18.29-26.19,1.86-2.51,3.78-4.99,6.07-7.59M198.95,95.36c-.11,4.48,2.47,8.35,6.83,10.23,7.68,3.3,18.24.97,24.68-5.44,4.99-4.96,7.41-11.1,8.35-17.94.18-1.31.06-1.45-1.25-1.27-11.63,1.6-22.96,4.42-34.09,8.13-4.08,1.36-4.42,1.84-4.53,6.3M150.89,53.36c.11.08.21.17.32.25.14-.22.25-.47.42-.67,5.82-6.85,11.7-13.64,17.66-20.38,7.92-8.95,15.77-17.97,23.65-26.96.66-.75,1.28-1.54,1.87-2.36.27-.37.61-.86.25-1.32-.38-.49-.98-.33-1.46-.14-1.39.53-2.68,1.27-3.93,2.07-4.79,3.08-9.14,6.72-13.38,10.48-7.28,6.47-14.14,13.37-21.15,20.12-.52.5-.75,1.03-.62,1.75.46,2.44.2,4.87-.25,7.28-.65,3.45-1.97,6.67-3.36,9.87M153.19,36.79c-.67.04-.9.52-1.22.83-5.81,5.72-11.6,11.47-17.55,17.05-3.47,3.25-6.99,6.45-10.62,9.51-1.24,1.04-1.21,1.09.18,1.78,3.63,1.8,7.51,2.77,11.49,3.44.97.16,1.78,0,2.42-.87.6-.8,1.36-1.48,1.98-2.27,2.74-3.47,6.14-6.41,8.12-10.51,1.96-4.05,3.99-8.04,4.88-12.5.43-2.14.56-4.28.32-6.47M78.75,26.93c.88.13,1.48.25,2.08.31,3.73.41,7.47.75,11.22.86,3.96.12,7.86-.12,11.64-1.38,2.11-.7,3.96-1.83,5.36-3.61,2.79-3.54,1.66-8.06-2.46-9.86-4.05-1.77-8.06-1.18-11.98.34-6.69,2.59-11.3,7.72-15.86,13.33M34.01,77.08c-7.01-2.21-13.82-3.46-20.89-3.09-3.42.18-6.77.64-9.81,2.38-1,.57-1.86,1.28-1.88,2.48-.02,1.24.8,2.09,1.85,2.66,1.58.86,3.25,1.47,5.02,1.82,6.66,1.28,13.01.01,19.18-2.45,2.26-.9,4.39-2.08,6.53-3.79M89.83,46.33c.07-2.01-.95-2.82-2.67-2.29-1.49.46-2.71,1.38-3.86,2.39-5.33,4.68-9.09,10.54-12.42,16.7-.96,1.77-1.77,3.6-2.22,5.57-.17.72-.45,1.55.19,2.09.72.61,1.51.07,2.18-.3,1.85-1.03,3.39-2.45,4.87-3.93,4.66-4.68,8.97-9.63,12.24-15.42.89-1.58,1.51-3.23,1.7-4.81"/>
      <path class="cls-1" d="M270.4,36.05c6.91,1.1,13.68.58,20.43-.52.91-.15,1.82-.17,2.74-.13.35.02.76.08.71.56-.04.37-.38.43-.71.43-5.3.03-10.44,1.49-15.74,1.59-2.45.05-4.89.09-7.32-.15-.99-.1-1.58.23-2.12,1.1-4.46,7.2-9.12,14.28-13.14,21.74-1.28,2.39-2.51,4.8-3.36,7.38-.12.37-.27.75-.33,1.13-.1.72-.34,1.54.31,2.1.7.6,1.42.1,2.07-.21,1.59-.77,2.92-1.92,4.13-3.19,2.02-2.12,3.71-4.38,4.9-7.16,2.81-6.54,7.17-11.95,13.12-15.98,2.06-1.39,4.28-2.34,6.84-2.32,2.49.03,3.48.93,3.66,3.42.01.16.05.31.12.7.86-1.19,1.57-2.22,2.32-3.22.84-1.13,3.3-1.75,4.54-1.17.79.37.5.87.16,1.38-1.71,2.59-3.43,5.16-5.12,7.76-3.04,4.7-5.76,9.58-8.1,14.66-.55,1.19-1,2.43-1.19,3.73-.23,1.58.62,2.24,2.11,1.66,1.2-.47,2.25-1.19,3.15-2.09,2.51-2.48,4.83-4.99,6.26-8.4,2.89-6.9,7.44-12.6,13.87-16.64,1.77-1.11,3.68-1.78,5.8-1.8,1.62-.02,2.9.5,3.71,2.11,2.17-4.14,4.36-8.16,6.79-12.04,3.97-6.35,8.21-12.48,13.82-17.53,1.72-1.55,3.54-2.98,5.63-4.02,1.1-.55,2.26-.95,3.5-.99,2.16-.06,3.27,1.27,2.76,3.36-.63,2.6-2.07,4.81-3.62,6.92-4.43,6.04-9.63,11.4-14.86,16.74-3.33,3.4-6.61,6.85-10.12,10.06-.28.26-.55.58-.7.92-2.59,5.73-5.21,11.45-6.57,17.64-.42,1.93-.56,3.89-.39,5.86.28,3.31,2.49,5.39,5.8,5.34,5.74-.1,10.14-2.97,13.79-7.09,2.34-2.64,4.04-5.7,4.76-9.21.33-1.6.42-3.2-.19-4.77-.13-.34-.47-.79.07-1,.45-.18.68.28.89.61,1.01,1.53,1,3.23.71,4.93-1.08,6.29-4.71,10.87-9.85,14.38-2.48,1.69-5.22,2.82-8.23,3.22-8.26,1.09-12.08-3.79-11.45-11.2.24-2.73.73-5.41,1.72-8.35-2.27,2.67-4.27,5.08-6.35,7.42-1.86,2.09-3.83,4.07-6.2,5.61-.47.31-.97.6-1.48.83-3.03,1.36-5.34-.13-5.41-3.46-.01-.69,0-1.38,0-2.17-1.39,1.36-2.69,2.69-4.05,3.95-1.26,1.18-2.68,2.09-4.44,2.38-2.47.4-4.24-1-4.31-3.5-.09-3.05,1.04-5.81,2.13-8.62-1.22,1.49-2.54,2.87-3.83,4.28-2.24,2.45-4.39,5-7.31,6.7-3.58,2.08-6.18.56-6.21-3.61,0-.43,0-.86,0-1.55-1.56,1.64-2.97,3.1-4.55,4.36-1.11.88-2.3,1.6-3.69,1.91-2.31.52-3.99-.58-4.41-2.9-.32-1.77.15-3.48.69-5.14,1.24-3.89,3.1-7.5,5.13-11.02,3.02-5.26,6.17-10.45,9.56-15.49.34-.5,1.01-1.21-.24-1.39-4.36-.6-8.7-1.45-13.12-1.62-4.3-.16-8.35.62-11.7,3.62-.38.34-.95.59-1.28.16-.32-.41.25-.77.55-1.05,2.37-2.29,5.32-3.27,8.5-3.69,4.99-.67,9.97-.18,14.85.74,3.08.58,5.26.29,6.57-2.86.49-1.19,1.4-2.21,2.17-3.27.74-1.02,3.51-1.64,4.58-1.04.71.4.46.93.12,1.44-1.22,1.81-2.45,3.61-3.67,5.43-.26.39-.61.74-.68,1.32M312.93,45.96c-.03-1.85-1.3-2.56-2.99-1.84-2.31.98-4.03,2.74-5.68,4.54-4.07,4.45-7.12,9.59-9.83,14.93-.91,1.78-1.73,3.63-2.05,5.64-.09.57-.27,1.28.37,1.68.55.34,1.1.03,1.61-.22,1.43-.69,2.62-1.73,3.77-2.79,3.28-3.03,6.06-6.5,8.93-9.91,2.73-3.25,4.3-7.04,5.67-10.96.14-.41.16-.85.2-1.06M285.14,46.27c.06-2.23-1.02-3.01-2.76-2.27-.76.32-1.5.72-2.16,1.22-1.61,1.21-3.02,2.63-4.33,4.15-4.42,5.12-7.95,10.8-10.66,16.99-.46,1.04-.8,2.13-.89,3.27-.1,1.29.34,1.61,1.53,1.19.71-.24,1.33-.65,1.91-1.12,5.84-4.69,10.46-10.46,14.58-16.65,1.43-2.14,2.49-4.5,2.78-6.78M319.62,43.46c.5.07.63-.21.8-.38,4.32-4.07,8.39-8.38,12.46-12.69,3.62-3.84,7.22-7.71,10.13-12.14,1.03-1.57,2.01-3.17,2.5-5.01.17-.62.25-1.21-.27-1.71-.56-.53-1.19-.42-1.84-.19-1.09.39-2,1.05-2.89,1.77-2.19,1.76-4.02,3.87-5.75,6.07-4.41,5.61-8.06,11.71-11.65,17.85-1.22,2.09-2.32,4.25-3.51,6.43"/>
      <path class="cls-1" d="M239.17,29.58c-.07,1.96-1.87,4.26-3.73,4.79-1.79.51-2.82-.3-2.73-2.13.09-1.86,1.82-4.19,3.57-4.8,1.72-.6,2.96.32,2.89,2.14"/>
    </g>
  </g>
</svg>