<?xml version="1.0" encoding="UTF-8"?>
<svg id="Capa_2" data-name="Capa 2" xmlns="http://www.w3.org/2000/svg" viewBox="0 0 396.33 81.49">
  <defs>
    <style>
      .cls-1 {
        fill: #b61667;
      }
    </style>
  </defs>
  <g id="Capa_1-2" data-name="Capa 1">
    <g>
      <path class="cls-1" d="M28.95,22.95c-.31-.81-.93-1.12-1.69-1.12s-1.33.31-1.64,1.12l-6.46,16.21c-.05.14-.07.26-.07.4,0,.45.36.85.83.97.17.05.31.07.47.07.4,0,.76-.19.93-.66l1.83-4.89h8.21l1.87,4.91c.17.45.55.66.97.66.14,0,.28-.02.43-.07.47-.12.85-.47.85-.95,0-.14-.02-.26-.09-.4l-6.46-16.26ZM23.87,33.06l2.68-6.88c.28-.71.52-1.47.74-2.28.21.81.47,1.57.74,2.25l2.63,6.91h-6.79Z"/>
      <path class="cls-1" d="M64.9,22h-5.27c-1.69,0-2.42.74-2.42,2.56v15.05c0,.69.45,1.02,1.12,1.02s1.12-.33,1.12-1v-6.72h5.36c3.77,0,5.96-2.06,5.96-5.62,0-3.37-2.11-5.29-5.86-5.29M64.76,30.93h-5.32v-6.08c0-.52.24-.83.76-.83h4.56c2.37,0,3.68,1.19,3.68,3.32,0,2.3-1.28,3.58-3.68,3.58"/>
      <path class="cls-1" d="M86.19,22.95c-.31-.81-.93-1.12-1.69-1.12s-1.33.31-1.64,1.12l-6.46,16.21c-.05.14-.07.26-.07.4,0,.45.36.85.83.97.17.05.31.07.47.07.4,0,.76-.19.93-.66l1.83-4.89h8.21l1.88,4.91c.17.45.55.66.97.66.14,0,.28-.02.43-.07.47-.12.85-.47.85-.95,0-.14-.02-.26-.09-.4l-6.46-16.26ZM81.11,33.06l2.68-6.88c.28-.71.52-1.47.74-2.28.21.81.47,1.57.74,2.25l2.63,6.91h-6.79Z"/>
      <path class="cls-1" d="M12.06,39.03l.19-.2c-.2-.19-.47-.29-.75-.28H2.2v-15.6c0-.29-.11-.57-.32-.76-.2-.2-.48-.3-.76-.3-.3,0-.58.1-.79.3C.11,22.37,0,22.65,0,22.94v16.64c0,.28.1.56.3.76.2.2.47.3.76.3h10.44c.29,0,.56-.1.76-.3.2-.2.31-.47.3-.76,0-.29-.1-.56-.31-.75l-.19.2Z"/>
      <path class="cls-1" d="M112.09,39.03l.19-.2c-.2-.19-.47-.29-.75-.28h-9.31v-15.6c0-.29-.11-.57-.32-.76-.2-.2-.48-.3-.76-.3-.3,0-.58.1-.79.3-.21.2-.33.47-.32.76v16.64c0,.28.1.56.3.76.2.2.47.3.76.3h10.44c.29,0,.56-.1.76-.3.2-.2.31-.47.3-.76,0-.29-.1-.56-.31-.75l-.19.2Z"/>
      <polygon class="cls-1" points="101.5 40.64 101.5 40.63 101.5 40.63 101.5 40.64"/>
      <path class="cls-1" d="M137.67,22.38l.2-.2c-.18-.19-.43-.29-.69-.3h0s-.09,0-.13,0c-.16,0-.32.04-.47.12-.14.08-.26.2-.37.34h0s-6.63,9.88-6.63,9.88l-6.58-9.87c-.1-.16-.26-.27-.43-.35h0c-.17-.07-.33-.11-.5-.11-.29,0-.57.11-.76.32-.19.2-.3.46-.3.74v16.64c0,.28.09.55.28.75.19.21.46.31.75.31.28,0,.56-.1.76-.3.2-.2.31-.47.3-.76v-13.41l5.61,8.54h0c.2.26.48.43.79.43h.1c.15,0,.3-.04.43-.11.13-.07.24-.18.34-.31h0s5.6-8.49,5.6-8.49v13.37c0,.29.11.57.32.76.21.2.49.3.79.3.29,0,.56-.1.76-.3.21-.19.32-.47.32-.76v-16.64c0-.29-.1-.56-.3-.76l-.2.2Z"/>
      <path class="cls-1" d="M156.97,22.95c-.31-.81-.93-1.12-1.69-1.12s-1.33.31-1.64,1.12l-6.46,16.21c-.05.14-.07.26-.07.4,0,.45.36.85.83.97.17.05.31.07.47.07.4,0,.76-.19.93-.66l1.83-4.89h8.21l1.87,4.91c.17.45.55.66.97.66.14,0,.28-.02.43-.07.47-.12.85-.47.85-.95,0-.14-.02-.26-.09-.4l-6.46-16.26ZM151.89,33.06l2.68-6.88c.28-.71.52-1.47.74-2.28.21.81.47,1.57.74,2.25l2.63,6.91h-6.79Z"/>
      <path class="cls-1" d="M243.7,23.97c.28,0,.55-.09.75-.28.21-.19.31-.46.31-.75,0-.29-.1-.56-.3-.76h0c-.2-.2-.47-.31-.76-.3h-9.54c-.29,0-.56.1-.76.3-.2.2-.31.47-.3.76v16.64c0,.29.1.56.3.76.2.2.47.3.76.3h9.54c.28,0,.55-.09.75-.28.2-.19.31-.46.31-.75,0-.27-.11-.54-.3-.74l-.2.19.2-.19c-.2-.21-.47-.32-.76-.32h-8.4v-6.51h8.4c.28,0,.55-.09.75-.28.2-.19.31-.46.31-.75,0-.29-.1-.56-.3-.76-.2-.2-.47-.31-.76-.3h-8.4v-5.97h8.4Z"/>
      <path class="cls-1" d="M265.51,39.03l.19-.2c-.2-.19-.47-.29-.75-.28h-9.31v-15.6c0-.29-.11-.57-.32-.76-.2-.2-.48-.3-.76-.3-.3,0-.58.1-.79.3-.21.2-.33.47-.32.76v16.64c0,.28.1.56.3.76.2.2.47.3.76.3h10.44c.29,0,.56-.1.76-.3.2-.2.31-.47.3-.76,0-.29-.1-.56-.31-.75l-.19.2Z"/>
      <path class="cls-1" d="M300.19,22h-13.08c-.57,0-.9.5-.9,1.07s.33,1.02.93,1.02h5.39v15.57c0,.64.5.97,1.14.97s1.14-.33,1.14-.97v-15.57h5.39c.55,0,.9-.47.9-1.02s-.33-1.07-.9-1.07"/>
      <path class="cls-1" d="M323.18,21.6c-.66,0-1.14.31-1.14.97v10.75c0,3.49-1.71,5.25-4.98,5.25s-4.91-1.73-4.91-5.22v-10.78c0-.66-.5-.97-1.12-.97-.69,0-1.16.31-1.16.97v10.85c0,4.77,2.63,7.22,7.22,7.22s7.24-2.52,7.24-7.22v-10.85c0-.66-.47-.97-1.14-.97"/>
      <path class="cls-1" d="M347.55,34.27c-.15-.05-.3-.07-.43-.07-.41,0-.8.21-.98.74-.57,1.9-1.8,3.61-4.41,3.61-3.26,0-5.41-2.94-5.41-7.52s2.15-7.55,5.41-7.55c2.48,0,3.56,1.4,4.22,3.11.2.45.54.62.91.62.17,0,.35-.02.52-.09.33-.12.67-.45.67-.95,0-.14-.02-.31-.09-.47-.78-2.09-2.5-4.27-6.32-4.27-4.52,0-7.5,3.82-7.5,9.59s2.98,9.64,7.65,9.64c3.87,0,5.69-2.66,6.45-5.01.04-.14.07-.26.07-.4,0-.5-.39-.85-.76-.95"/>
      <path class="cls-1" d="M366.22,22.95c-.31-.81-.93-1.12-1.69-1.12s-1.33.31-1.64,1.12l-6.46,16.21c-.05.14-.07.26-.07.4,0,.45.36.85.83.97.17.05.31.07.47.07.4,0,.76-.19.93-.66l1.83-4.89h8.21l1.88,4.91c.17.45.55.66.97.66.14,0,.28-.02.43-.07.47-.12.85-.47.85-.95,0-.14-.02-.26-.09-.4l-6.46-16.26ZM361.14,33.06l2.68-6.88c.29-.71.52-1.47.74-2.28.21.81.47,1.57.74,2.25l2.63,6.91h-6.79Z"/>
      <path class="cls-1" d="M364.03,19.24c.45-.67.91-1.32,1.37-1.98.22-.31.58-.48.96-.45.62.03.98.5.97.98,0,.14-.08.31-.18.44-.44.68-.9,1.33-1.35,1.99-.21.32-.58.46-.92.44-.58-.02-1.03-.51-.99-.97,0-.16.08-.32.15-.46"/>
      <path class="cls-1" d="M382.03,40.35s0,0,0,0h0Z"/>
      <path class="cls-1" d="M396.06,22.18l-.2.19.2-.19c-.19-.2-.46-.3-.74-.3-.27,0-.53.1-.72.29-.19.19-.29.45-.29.72v13.82l-10.7-14.42h0c-.09-.13-.22-.23-.37-.3-.15-.07-.31-.1-.48-.1-.27,0-.53.1-.72.28-.21.19-.31.48-.31.77v16.71c0,.26.1.51.29.69.19.19.45.29.72.29.26,0,.51-.1.7-.28.19-.18.31-.43.31-.7v-13.74l10.66,14.36h.01c.1.11.22.19.35.25.15.07.31.1.47.1.29,0,.56-.1.76-.3.22-.2.32-.5.32-.81v-16.64c0-.26-.09-.52-.27-.71"/>
      <path class="cls-1" d="M236.07.23c-13.47,2.3-21.89,19.55-29.96,31.06-2.57-3.12-5.08-5.88-6.83-8.34,3.63-3.2,6.64-6.36,6.13-9.31-.26-1.55-1.82-2.35-3.81-2.01-4.57.78-6.01,4.31-5.41,7.85.21,1.21.78,2.53,1.69,4.15-5.17,4.53-11.59,9.09-10.74,14.09.47,2.76,3.19,4.69,7.35,3.98,3.62-.62,6.92-3.67,10.12-7.77,3.26,5.04,6.46,10.8,7.49,16.84,2.26,13.2-6.35,26.76-22.66,29.54-11.22,1.91-17.93-2.54-20.75-8.62,2.64-1.24,4.57-2.91,6.05-4.68,1.33,2.09,3.79,3.44,7.67,2.77,12.87-2.19,12.1-23.82-2.92-21.26-11.65,1.99-15.87,14.26-12.03,23.19l.03.06c-.95.36-1.98.69-3.14.88-20.96,3.59-23.14-28.71-2.99-32.16,7.39-1.26,11.82,2.94,12.75,8.43.03.14.36.08.32-.13-.93-5.5-5.4-9.97-13.13-8.65-20.69,3.54-18.34,36.5,3.09,32.84,1.17-.2,2.22-.53,3.21-.9v.03c.09.15.17.3.25.45,3.06,6.01,9.97,10.32,21,8.45,17.09-2.93,28.59-17.68,26.01-32.79-1.14-6.73-4.82-12.14-8.44-16.68,8.24-11.53,16.58-28.76,29.7-31,16.39-2.81,17.13,22.3,1.33,24.99-11.92,2.03-12.17-15.06-1.04-16.96.09-.02.03-.36-.05-.34-11.56,1.97-11.2,19.76,1.24,17.64,16.39-2.8,15.37-28.56-1.55-25.67M197.29,18.66c-.48-2.85.49-5.94,4.12-6.57,1.64-.27,2.57.45,2.8,1.83.5,2.94-1.97,5.67-5.19,8.63-.96-1.44-1.51-2.59-1.73-3.88M194.51,41.34c-3.46.59-5.33-1.04-5.76-3.54-.82-4.84,4.5-9.47,9.37-13.77,1.6,2.66,3.94,5.89,6.24,9.5-3.19,4.19-6.32,7.21-9.86,7.81M176.54,57.29c1.81-.31,1.73,4.41-1.68,8.9-1.75-3.51-.65-8.5,1.68-8.9M179.56,48.97c14.42-2.47,14.96,18.4,2.79,20.47-3.8.66-6.07-.73-7.32-2.83,3.87-4.83,3.93-10.17,1.52-9.75-2.85.48-4.04,6.01-2.07,9.77-1.38,1.74-3.4,3.42-6.03,4.67-3.71-8.7.31-20.49,11.1-22.32"/>
    </g>
  </g>
</svg>