<?xml version="1.0" encoding="UTF-8"?>
<svg id="Capa_2" data-name="Capa 2" xmlns="http://www.w3.org/2000/svg" viewBox="0 0 227.38 130.69">
  <defs>
    <style>
      .cls-1 {
        fill: #fa5753;
      }
    </style>
  </defs>
  <g id="Capa_1-2" data-name="Capa 1">
    <g>
      <path class="cls-1" d="M57.23,76.91c12.51,3.46,24.47,7.97,36.39,12.59,9.94,3.86,19.83,7.87,29.74,11.84.63.25,1.12.16,1.69-.08,10.89-4.68,21.76-9.41,32.9-13.51,9.5-3.5,19.1-6.7,29.09-8.53,5.16-.95,10.38-1.76,15.64-1.57,6,.22,11.88,1.09,17.19,4.26,8.57,5.11,9.61,15.06,4.15,22.53-3.49,4.78-8.3,7.8-13.75,9.83-7.09,2.64-14.46,3.75-22,4.13-15.09.77-29.56-2.13-43.76-6.91-6.55-2.2-12.94-4.79-19.34-7.38-.67-.27-1.27-.34-1.94-.01-.84.41-1.71.74-2.69,1.15,1.52,1.19,3,2.28,4.42,3.46,1.61,1.34,2.95,2.92,4.01,4.72,3.07,5.2,1.58,11.32-3.79,14.69-4.85,3.04-10.04,3.35-15.31,1.08-1.53-.66-2.78-1.79-3.56-3.32-.71-1.4-.57-3.4.3-4.19.22-.2.45-.45.77-.21.28.21.05.45-.04.67-.82,2.12-.28,3.87,1.65,5.3,2.25,1.68,4.88,2.2,7.57,2.1,3.42-.12,6.58-1.15,9.12-3.6,3.61-3.47,4.21-8.23,1.54-12.48-1.99-3.16-4.87-5.37-8-7.3-.55-.34-.96-.07-1.42.13-8.02,3.45-16.2,6.48-24.6,8.87-7.77,2.21-15.66,3.72-23.77,3.61-5.45-.07-10.8-.84-15.8-3.23-1.63-.78-3.08-1.79-4.31-3.09-2.97-3.12-3.1-7.48-.42-11.16,1.95-2.68,4.57-4.53,7.54-5.86,4.76-2.14,9.79-3.24,15.01-3.43,12.01-.44,23.43,2.29,34.57,6.49,3.61,1.36,7.12,2.95,10.53,4.74,1.32.69,2.51.88,3.78-.01.3-.21.69-.3,1.32-.56-1.07-.46-1.92-.85-2.79-1.19-12.11-4.73-24.12-9.7-36.3-14.23-8.38-3.11-16.79-6.11-25.35-8.7-.93-.28-1.42-.03-2.05.66-8.37,9.1-18.04,16.13-30.43,18.7-5.54,1.15-11.09,1.47-16.56-.35-2.65-.88-5.06-2.25-6.59-4.71-2.16-3.49-2.07-7.08-.14-10.62,1.93-3.54,5.09-5.73,8.66-7.35,7.13-3.25,14.66-3.93,22.37-3.24,5.97.53,11.79,1.82,17.57,3.33,1.04.27,1.61.04,2.22-.79,4.14-5.58,7.99-11.36,11.82-17.15,5.93-8.97,11.8-17.99,18.75-26.23,5.7-6.77,12.08-12.81,19.36-17.87.84-.58.41-.75-.12-1.09-4.59-2.94-9.72-4.36-15.01-5.25-11.09-1.86-22.11-1.3-33.01,1.41-9.23,2.3-17.75,6.13-25.28,12.02-6.32,4.95-11.31,10.94-14.3,18.44-1.61,4.04-2.17,8.28-1.45,12.59,1.01,5.96,5.42,10.21,11.43,11.21,5.74.95,11.27.05,16.5-2.31,10.98-4.96,19.11-12.96,24.54-23.69,1.61-3.18,2.37-6.6,2.16-10.2-.08-1.3-.34-2.51-1.12-3.58-.24-.32-.66-.7-.14-1.08.46-.33.8.07,1.07.39,1.31,1.53,1.75,3.37,1.76,5.31.04,4.54-1.48,8.66-3.68,12.53-4.72,8.34-11.33,14.83-19.72,19.47-5.46,3.02-11.32,4.8-17.57,4.93-3.76.08-7.4-.61-10.64-2.8-4.35-2.94-6.39-7.11-6.68-12.21-.4-6.87,2.08-12.89,5.89-18.4,6.08-8.79,14.46-14.76,24.05-19.15,8.99-4.12,18.49-6.25,28.34-6.95,9.65-.68,19.11.15,28.31,3.3,2.13.73,4.17,1.68,6.08,2.87.7.43,1.22.48,1.95,0,8.07-5.29,16.77-9.02,26.39-10.32,4.69-.63,9.37-.76,13.94.85,1.46.51,2.81,1.21,3.83,2.4,1.01,1.17,1.39,2.51.8,4.01-.12.3-.29.7-.7.6-.52-.12-.24-.53-.18-.83.34-1.8-.32-3.14-1.87-4.08-2.61-1.59-5.52-2.09-8.51-2.21-8.29-.34-16,1.85-23.37,5.48-3.01,1.49-5.85,3.23-8.63,5.11-.69.47-.95.78-.14,1.47,6.82,5.8,7.1,13.68,3.67,20.74-2.43,5.01-6.36,8.61-11.12,11.35-5.49,3.16-11.33,5.1-17.75,4.93-.85-.02-1.7-.09-2.43-.6-.34-.24-.54-.57-.31-.98.21-.38.56-.51.98-.31,2.76,1.27,5.51.66,8.17-.24,8.64-2.92,14.46-8.88,17.96-17.17,1.64-3.89,2.35-7.94,1.24-12.15-.44-1.69-1.46-3.03-2.47-4.4-.52-.7-.96-.29-1.36.08-2.11,1.96-4.23,3.9-6.21,6-8.23,8.69-14.74,18.65-21.1,28.71-5.97,9.45-11.84,18.96-19.15,27.72M126.53,102.58c.6.27.9.42,1.22.54,8.81,3.27,17.62,6.52,26.69,9.04,13.34,3.71,26.83,6.06,40.75,4.54,6.62-.72,13.04-2.2,18.94-5.37,4.62-2.49,8.39-5.87,10.42-10.87,2.3-5.69,1.2-11.65-2.89-15.62-2.47-2.4-5.53-3.76-8.8-4.59-6.77-1.73-13.62-1.38-20.44-.4-10.31,1.5-20.2,4.65-29.97,8.15-8.81,3.16-17.44,6.77-26.06,10.41-3.19,1.35-6.38,2.7-9.86,4.16M116.76,104.77c-.68-.37-1.05-.58-1.42-.77-10.77-5.39-22.1-8.93-34.07-10.38-5.66-.69-11.31-.87-16.92.34-4.91,1.06-9.49,2.77-13.08,6.54-3.76,3.96-3.53,9.1.65,12.55,2.18,1.8,4.75,2.73,7.46,3.36,7.23,1.7,14.47,1.17,21.67-.13,10.63-1.92,20.73-5.61,30.77-9.45,1.57-.6,3.1-1.29,4.94-2.07M25.9,72.79c-2.26-.11-5.24.22-8.19.85-5.1,1.09-9.84,2.86-13.37,6.97-4.6,5.35-3.75,13.55,4.31,15.86,9.16,2.63,17.6.17,25.48-4.58,5.64-3.4,10.19-8.09,14.44-13.08,1.79-2.1,1.81-2.1-.87-2.79-6.9-1.77-13.84-3.3-21.79-3.24"/>
      <path class="cls-1" d="M118.26,67.3c-2.86,2.84-5.24,5.67-8.23,7.84-.8.58-1.64,1.04-2.56,1.39-2.61.98-4.8-.42-5.02-3.22-.15-1.91.42-3.68,1.09-5.43.33-.86.7-1.7,1-2.59-2.54,2.84-5,5.73-7.9,8.2-1.61,1.37-3.17,2.82-5.35,3.28-2.44.51-4.06-.65-4.3-3.15-.21-2.19.53-4.18,1.38-6.13,2.09-4.77,5.17-8.93,8.24-13.08,1.11-1.5,2.28-2.95,3.41-4.43,1-1.31,2.31-1.95,3.97-1.83.55.04,1.14.04,1.44.62.3.6-.08,1.06-.4,1.5-2.37,3.3-4.92,6.47-7.11,9.9-2.57,4.03-5.42,7.9-7.14,12.41-.06.16-.13.31-.18.48-.23.73-.52,1.55.12,2.15.67.63,1.38.05,1.98-.26,2.51-1.33,4.41-3.42,6.36-5.41,5.74-5.87,10.41-12.58,14.92-19.4,1.03-1.55,2.38-2.17,4.2-2.03,1.54.12,1.89.73,1.03,2.03-2.97,4.48-6.04,8.9-8.78,13.53-1.59,2.7-3.26,5.36-4.31,8.33-.37,1.05-1.11,2.35-.03,3.17.99.75,2.11-.18,3-.78,2.84-1.91,4.9-4.64,7.3-7.02,3.56-3.52,5.36-8.08,7.76-12.29,5.73-10.04,12.34-19.44,20.19-27.94,2.94-3.18,6.16-6.05,10.02-8.12,1.63-.87,3.32-1.5,5.2-1.44,1.82.06,2.66.93,2.52,2.72-.17,2.21-1.43,3.97-2.65,5.68-2.5,3.49-5.45,6.58-8.5,9.59-6.48,6.41-13.24,12.49-20.46,18.05-.26.2-.54.44-.71.72-3.18,5.35-6.41,10.67-8.56,16.55-.27.75-.47,1.55-.55,2.34-.19,2.11.73,2.73,2.68,1.84,1.57-.71,2.76-1.94,4.02-3.07,1.04-.93,1.76-2.01,2.22-3.42,1.09-3.36,3.39-5.74,6.79-6.86,1.31-.43,2.31-1.1,3.16-2.17,1.95-2.45,3.97-4.85,5.98-7.25.39-.47.61-.98.75-1.58.68-2.83,1.93-5.33,4.35-7.09,2.27-1.65,4.78-2.16,7.46-1.36,2.13.63,2.82,3.33,1.35,4.96-.23.26-.49.56-.85.32-.32-.22-.09-.5.03-.78.95-2.2-.04-3.63-2.41-3.46-1.49.11-2.63.83-3.47,2.06-1.81,2.68-2.21,5.74-2.3,8.85-.1,3.86-.13,7.71-1.45,11.4-2.21,6.19-6.4,10.03-13.07,10.9-3.24.42-5.47-.83-6.73-3.85-.34-.8-.63-.28-.89-.03-1.18,1.16-2.4,2.27-3.84,3.11-.4.24-.8.49-1.23.66-3.1,1.25-5.58-.34-5.74-3.67-.08-1.74.25-3.44.81-5.45M131.82,51.15c2.97-2.57,6-5.08,8.9-7.72,5.62-5.13,11.25-10.27,16.05-16.22,1.41-1.74,2.76-3.54,3.57-5.67.3-.8.64-1.67-.06-2.38-.77-.77-1.66-.34-2.48,0-.82.34-1.6.77-2.31,1.32-1.58,1.22-3.06,2.54-4.4,4.02-7.37,8.16-13.59,17.17-19.27,26.65M145.42,54.12c-1.75,2.11-3.5,4.21-5.24,6.33-.15.18-.41.4,0,.58.29.12.77.08.61.59-.14.42-.6.48-.96.47-.96-.01-1.54.49-2.06,1.23-1.2,1.69-2.49,3.32-3.98,4.76-.39.38-.87,1.24-1.37.74-.43-.42.39-.98.77-1.38,1.27-1.34,2.47-2.73,3.47-4.27-.32-.28-.56-.13-.77-.01-3.13,1.77-4.98,4.47-5.34,8-.27,2.61,1.6,4.3,4.16,4.07,1.6-.15,3.05-.71,4.27-1.76,1.86-1.6,3.28-3.53,4.17-5.83,1.66-4.31,2.11-8.85,2.3-13.52"/>
      <path class="cls-1" d="M169.61,78.14c10.26-.48,19.35-3.81,26.73-11.17,2.42-2.41,4.36-5.18,5.36-8.51.49-1.62.56-3.25.3-4.9-.23-1.44-.98-2.6-2.18-3.45-.3-.21-.76-.43-.44-.88.31-.43.68-.1,1,.08,2.62,1.46,3.84,4.6,3.23,8.06-.73,4.16-2.99,7.49-5.94,10.28-8.24,7.8-18.16,11.6-29.47,11.73-3.01.03-5.99-.43-8.74-1.84-4.06-2.07-6.42-6.44-5.76-10.94.97-6.54,4.54-11.57,9.42-15.77,3.37-2.9,7.18-4.92,11.7-5.4.08,0,.17-.03.25-.04,1.46-.06,2.99-.09,3.94,1.23.99,1.38.28,2.78-.4,4.06-1.12,2.11-2.9,3.62-4.83,4.95-3.5,2.42-7.36,3.98-11.55,4.71-.45.08-.93.06-1.2.57-1.72,3.3-3.16,6.68-2.71,10.53.32,2.73,1.92,4.54,4.42,5.58,2.19.91,4.5,1.16,6.87,1.12M161.93,59.29c6.26-1.32,11.55-3.76,15.24-8.92.65-.91,1.32-2,.53-3.02-.87-1.12-2.14-.69-3.28-.27-1.32.49-2.5,1.22-3.63,2.06-1.29.96-2.47,2.06-3.58,3.22-1.95,2.04-3.68,4.26-5.28,6.93"/>
    </g>
  </g>
</svg>