<?xml version="1.0" encoding="UTF-8"?>
<svg id="Capa_2" data-name="Capa 2" xmlns="http://www.w3.org/2000/svg" viewBox="0 0 233.73 39.68">
  <defs>
    <style>
      .cls-1 {
        fill: #ef5aa0;
      }
    </style>
  </defs>
  <g id="Capa_1-2" data-name="Capa 1">
    <g>
      <path class="cls-1" d="M9.15,25.33v-9.03L2.46,4.14C1.64,2.7.7,1.17,0,0h7.7c.2,1.68,1.17,3.95,2.15,6.02l4.61,9.3,3.87-7.31c1.64-3.25,2.38-5.71,2.74-8.01h2.66c-1.25,2.11-2.89,5.12-4.34,7.94l-4.5,8.29v9.11c0,2.11.08,3.52.31,5.16h-6.37c.23-1.64.31-3.05.31-5.16Z"/>
      <path class="cls-1" d="M19.51,20.41c0-6.8,5.24-10.63,10.99-10.63s11.02,3.83,11.02,10.63-5.28,10.71-11.02,10.71-10.99-3.87-10.99-10.71ZM30.49,30.34c3.56,0,5.59-3.17,5.55-9.93,0-6.76-1.95-9.89-5.55-9.89s-5.59,3.13-5.55,9.89c0,6.76,1.96,9.93,5.55,9.93Z"/>
      <path class="cls-1" d="M43.47,24.47v-8.91c0-2.07-.08-3.52-.31-5.16h5.55c-.23,1.64-.31,3.09-.31,5.16v8.95c0,2.93,1.13,4.42,3.21,4.42,1.92,0,3.83-1.37,5.08-3.52v-9.85c0-2.07-.08-3.52-.31-5.16h5.51c-.23,1.64-.31,3.09-.31,5.16v9.77c0,2.07.08,3.52.31,5.16h-5.51c.2-1.29.27-2.46.31-3.87-1.72,2.7-4.65,4.5-7.66,4.5-3.44,0-5.55-2.35-5.55-6.65Z"/>
      <path class="cls-1" d="M71.81,25.33V5.16c0-2.15-.08-3.56-.31-5.16h6.37c-.24,1.6-.31,3.01-.31,5.16v20.17c0,2.15.08,3.56.31,5.16h-6.37c.23-1.6.31-3.01.31-5.16Z"/>
      <path class="cls-1" d="M94.95,25.33v-8.95c0-2.97-1.17-4.42-3.25-4.42-1.92,0-3.87,1.37-5.12,3.56v9.81c0,2.07.08,3.52.31,5.16h-5.51c.23-1.64.31-3.09.31-5.16v-9.77c0-2.07-.08-3.52-.31-5.16h5.51c-.2,1.29-.27,2.46-.31,3.95,1.72-2.74,4.69-4.57,7.7-4.57,3.44,0,5.55,2.35,5.55,6.61v8.95c0,2.07.08,3.52.31,5.16h-5.51c.23-1.64.31-3.09.31-5.16Z"/>
      <path class="cls-1" d="M101.25,24.82c.51-.94,1.21-1.37,2.03-1.37,1.02,0,1.96.67,2.46,1.8,1.09,3.64,3.28,5.08,5.67,5.08,2.15,0,3.87-1.13,3.87-3.05,0-5.12-12.78-5.24-12.78-12.16,0-3.36,3.01-5.36,7.39-5.36,3.24,0,6.65,1.21,8.99,3.4-.04,1.33-.74,2.35-2.03,2.35-1.17,0-1.92-.82-2.5-1.72-1.09-1.8-2.54-3.25-4.77-3.25-1.99,0-3.48,1.06-3.48,2.74,0,4.93,13.21,5.08,13.21,11.96,0,3.83-4.1,5.9-8.41,5.9s-8.48-1.92-9.66-6.33Z"/>
      <path class="cls-1" d="M126.19,26v8.52c0,2.07.08,3.52.31,5.16h-5.51c.23-1.64.31-3.09.31-5.16V15.56c0-2.07-.08-3.52-.31-5.16h5.51c-.2,1.29-.27,2.5-.31,3.99,1.76-3.05,4.38-4.61,7.23-4.61,5.36,0,8.17,5.32,8.17,10.67s-2.81,10.71-8.25,10.71c-3.56,0-5.98-2.27-7.15-5.16ZM131.23,28.93c3.48,0,5.24-4.22,5.24-8.41s-1.76-8.41-5.32-8.41c-1.88,0-3.71,1.21-4.96,3.36v8.33c.59,3.21,2.7,5.12,5.04,5.12Z"/>
      <path class="cls-1" d="M146.36,1.52l3.17,3.09-3.17,3.09-3.17-3.09,3.17-3.09ZM143.9,25.33v-9.77c0-2.07-.08-3.52-.31-5.16h5.55c-.23,1.64-.31,3.09-.31,5.16v9.77c0,2.07.08,3.52.31,5.16h-5.55c.23-1.64.31-3.09.31-5.16Z"/>
      <path class="cls-1" d="M152.5,25.33v-9.77c0-2.07-.08-3.52-.31-5.16h5.51c-.23,1.64-.31,3.09-.31,5.16v1.06c1.6-4.93,4.46-6.76,8.48-6.76.23.51.39,1.02.39,1.49,0,1.29-.94,2.46-2.54,2.46-2.42,0-5.12.39-6.33,4.14v7.39c0,2.07.08,3.52.31,5.16h-5.51c.23-1.64.31-3.09.31-5.16Z"/>
      <path class="cls-1" d="M164.42,20.29c0-6.41,4.89-10.52,10.32-10.52,4.93,0,9.19,3.32,9.34,8.56h-14.58v.04c0,5.24,2.74,10.24,7.39,10.24,3.32,0,6.14-2.46,7.15-6.26l.59.12c-1.41,5.55-5.47,8.68-9.97,8.68-5.43,0-10.24-4.46-10.24-10.87ZM178.92,17.51c-.12-4.65-1.64-7-4.3-7-2.89,0-4.89,2.7-5.08,7h9.38Z"/>
      <path class="cls-1" d="M192.64,19.9V5.16c0-2.11-.12-3.44-.35-5.16h6.37c-.2,1.68-.27,3.05-.27,5.16v14.74c0,6.1,2.27,9.54,7.15,9.54s7.31-3.21,7.31-9.54v-9.27c0-3.71-.35-8.29-.86-10.63h2.66c-.51,2.34-.9,6.88-.9,10.63v9.27c0,7.54-3.28,11.22-10.09,11.22s-11.02-3.87-11.02-11.22Z"/>
      <path class="cls-1" d="M215.67,24.82c.51-.94,1.21-1.37,2.03-1.37,1.02,0,1.96.67,2.46,1.8,1.09,3.64,3.28,5.08,5.67,5.08,2.15,0,3.87-1.13,3.87-3.05,0-5.12-12.78-5.24-12.78-12.16,0-3.36,3.01-5.36,7.39-5.36,3.24,0,6.65,1.21,8.99,3.4-.04,1.33-.74,2.35-2.03,2.35-1.17,0-1.92-.82-2.5-1.72-1.09-1.8-2.54-3.25-4.77-3.25-1.99,0-3.48,1.06-3.48,2.74,0,4.93,13.21,5.08,13.21,11.96,0,3.83-4.1,5.9-8.41,5.9s-8.48-1.92-9.66-6.33Z"/>
    </g>
  </g>
</svg>